<svg width="37" height="36" viewBox="0 0 37 36" fill="#000" xmlns="http://www.w3.org/2000/svg">
<path d="M3.51717 35.12C2.42384 35.12 1.60384 34.73 1.05717 33.9499C0.510506 33.124 0.756506 32.1833 1.79517 31.1279L14.8332 17.4305L2.69717 4.76567C1.65851 3.71027 1.41251 2.79252 1.95917 2.01244C2.50584 1.18647 3.32584 0.773487 4.41917 0.773487C5.29384 0.773487 6.00451 0.911149 6.55117 1.18647C7.09784 1.41591 7.61717 1.80595 8.10917 2.3566L18.6872 13.576L29.3472 2.3566C29.8392 1.80595 30.3585 1.41591 30.9052 1.18647C31.4518 0.911149 32.1352 0.773487 32.9552 0.773487C34.1032 0.773487 34.9232 1.18647 35.4152 2.01244C35.9618 2.79252 35.7158 3.73321 34.6772 4.8345L22.5412 17.4305L35.6612 31.1279C36.6452 32.1833 36.8638 33.124 36.3172 33.9499C35.7705 34.73 34.9232 35.12 33.7752 35.12C32.2992 35.12 31.0692 34.5923 30.0852 33.5369L18.6052 21.4227L7.20717 33.5369C6.71517 34.0417 6.19584 34.4317 5.64917 34.7071C5.10251 34.9824 4.39184 35.12 3.51717 35.12Z" fill="#000" fill-opacity="0.47"/>
</svg>
